<svg xmlns="http://www.w3.org/2000/svg" xmlns:xlink="http://www.w3.org/1999/xlink" width="500" zoomAndPan="magnify" viewBox="0 0 375 374.999991" height="500" preserveAspectRatio="xMidYMid meet" version="1.0"><defs><g/><clipPath id="2fbe81adcb"><path d="M 48.015625 170.394531 L 326.984375 170.394531 L 326.984375 219.511719 L 48.015625 219.511719 Z M 48.015625 170.394531 " clip-rule="nonzero"/></clipPath></defs><rect x="-37.5" width="450" fill="#ffffff" y="-37.499999" height="449.999989" fill-opacity="1"/><rect x="-37.5" width="450" fill="#1f2122" y="-37.499999" height="449.999989" fill-opacity="1"/><g fill="#fbfdfa" fill-opacity="1"><g transform="translate(41.921046, 267.842073)"><g><path d="M 0.828125 0 L 0.828125 -2.046875 L 9.234375 -2.046875 C 13.066406 -2.046875 16.109375 -3.140625 18.359375 -5.328125 C 20.617188 -7.523438 22.773438 -11.425781 24.828125 -17.03125 L 72.21875 -146.5 L 92.328125 -146.5 L 138.28125 -16.828125 C 140.332031 -11.210938 142.488281 -7.34375 144.75 -5.21875 C 147.007812 -3.101562 150.050781 -2.046875 153.875 -2.046875 L 154.5 -2.046875 L 154.5 0 L 86.78125 0 L 86.78125 -2.046875 L 97.859375 -2.046875 C 104.160156 -2.046875 107.3125 -4.238281 107.3125 -8.625 C 107.3125 -10.8125 106.554688 -14.296875 105.046875 -19.078125 L 93.359375 -53.546875 L 40.421875 -53.546875 L 28.71875 -21.75 C 27.625 -19.007812 26.800781 -16.578125 26.25 -14.453125 C 25.707031 -12.335938 25.4375 -10.53125 25.4375 -9.03125 C 25.4375 -6.425781 26.253906 -4.609375 27.890625 -3.578125 C 29.535156 -2.554688 32.070312 -2.046875 35.5 -2.046875 L 50.0625 -2.046875 L 50.0625 0 Z M 41.234375 -55.609375 L 92.734375 -55.609375 L 80.015625 -93.96875 C 78.921875 -97.25 77.65625 -101.179688 76.21875 -105.765625 C 74.78125 -110.347656 73.410156 -115 72.109375 -119.71875 C 70.816406 -124.4375 69.757812 -128.503906 68.9375 -131.921875 C 67.84375 -128.640625 66.507812 -124.773438 64.9375 -120.328125 C 63.363281 -115.890625 61.753906 -111.445312 60.109375 -107 C 58.472656 -102.550781 57.039062 -98.6875 55.8125 -95.40625 Z M 41.234375 -55.609375 "/></g></g></g><g fill="#fbfdfa" fill-opacity="1"><g transform="translate(196.419453, 267.842073)"><g><path d="M 8.625 0 L 8.625 -2.046875 L 88.015625 -144.4375 L 48.21875 -144.4375 C 36.863281 -144.4375 28.6875 -142.25 23.6875 -137.875 C 18.695312 -133.5 15.929688 -126.113281 15.390625 -115.71875 L 14.765625 -104.234375 L 12.515625 -104.234375 L 13.953125 -146.5 L 123.109375 -146.5 L 123.109375 -144.4375 L 43.703125 -2.046875 L 91.921875 -2.046875 C 102.992188 -2.046875 111.023438 -4.234375 116.015625 -8.609375 C 121.015625 -12.992188 123.925781 -20.382812 124.75 -30.78125 L 125.5625 -42.265625 L 127.609375 -42.265625 L 126.1875 0 Z M 8.625 0 "/></g></g></g><g clip-path="url(#2fbe81adcb)"><path fill="#1f2122" d="M 48.015625 170.394531 L 326.972656 170.394531 L 326.972656 219.511719 L 48.015625 219.511719 Z M 48.015625 170.394531 " fill-opacity="1" fill-rule="nonzero"/></g><g fill="#fbfdfa" fill-opacity="1"><g transform="translate(62.207186, 203.510437)"><g><path d="M 0.078125 0 L 0.078125 -0.203125 L 0.9375 -0.203125 C 1.320312 -0.203125 1.628906 -0.3125 1.859375 -0.53125 C 2.097656 -0.757812 2.320312 -1.160156 2.53125 -1.734375 L 7.34375 -14.890625 L 9.390625 -14.890625 L 14.0625 -1.703125 C 14.269531 -1.140625 14.488281 -0.75 14.71875 -0.53125 C 14.945312 -0.3125 15.253906 -0.203125 15.640625 -0.203125 L 15.703125 -0.203125 L 15.703125 0 L 8.828125 0 L 8.828125 -0.203125 L 9.953125 -0.203125 C 10.585938 -0.203125 10.90625 -0.425781 10.90625 -0.875 C 10.90625 -1.09375 10.832031 -1.445312 10.6875 -1.9375 L 9.484375 -5.4375 L 4.109375 -5.4375 L 2.921875 -2.21875 C 2.804688 -1.9375 2.722656 -1.6875 2.671875 -1.46875 C 2.617188 -1.25 2.59375 -1.066406 2.59375 -0.921875 C 2.59375 -0.648438 2.675781 -0.460938 2.84375 -0.359375 C 3.007812 -0.253906 3.265625 -0.203125 3.609375 -0.203125 L 5.09375 -0.203125 L 5.09375 0 Z M 4.1875 -5.65625 L 9.421875 -5.65625 L 8.140625 -9.546875 C 8.023438 -9.878906 7.894531 -10.28125 7.75 -10.75 C 7.601562 -11.21875 7.460938 -11.691406 7.328125 -12.171875 C 7.203125 -12.648438 7.097656 -13.0625 7.015625 -13.40625 C 6.898438 -13.070312 6.757812 -12.679688 6.59375 -12.234375 C 6.4375 -11.785156 6.273438 -11.332031 6.109375 -10.875 C 5.941406 -10.425781 5.796875 -10.035156 5.671875 -9.703125 Z M 4.1875 -5.65625 "/></g></g></g><g fill="#fbfdfa" fill-opacity="1"><g transform="translate(85.740793, 203.510437)"><g><path d="M 0.578125 0 L 0.578125 -0.203125 L 1.875 -0.203125 C 2.164062 -0.203125 2.414062 -0.28125 2.625 -0.4375 C 2.832031 -0.59375 2.9375 -0.96875 2.9375 -1.5625 L 2.9375 -13.40625 C 2.9375 -13.96875 2.828125 -14.320312 2.609375 -14.46875 C 2.398438 -14.613281 2.15625 -14.6875 1.875 -14.6875 L 0.578125 -14.6875 L 0.578125 -14.890625 L 5.875 -14.890625 L 13.265625 -3.65625 L 13.265625 -13.40625 C 13.265625 -13.96875 13.15625 -14.320312 12.9375 -14.46875 C 12.726562 -14.613281 12.484375 -14.6875 12.203125 -14.6875 L 10.640625 -14.6875 L 10.640625 -14.890625 L 16.078125 -14.890625 L 16.078125 -14.6875 L 14.53125 -14.6875 C 14.238281 -14.6875 13.988281 -14.609375 13.78125 -14.453125 C 13.570312 -14.296875 13.46875 -13.921875 13.46875 -13.328125 L 13.46875 0 L 12.21875 0 L 3.15625 -13.8125 L 3.15625 -1.5625 C 3.15625 -0.96875 3.257812 -0.59375 3.46875 -0.4375 C 3.675781 -0.28125 3.925781 -0.203125 4.21875 -0.203125 L 6.03125 -0.203125 L 6.03125 0 Z M 0.578125 0 "/></g></g></g><g fill="#fbfdfa" fill-opacity="1"><g transform="translate(110.004475, 203.510437)"><g><path d="M 3.21875 0 L 3.21875 -0.203125 L 4.09375 -0.203125 C 4.394531 -0.203125 4.644531 -0.28125 4.84375 -0.4375 C 5.050781 -0.59375 5.15625 -0.96875 5.15625 -1.5625 L 5.15625 -14.6875 L 3.8125 -14.6875 C 2.6875 -14.6875 1.863281 -14.460938 1.34375 -14.015625 C 0.832031 -13.566406 0.546875 -12.816406 0.484375 -11.765625 L 0.421875 -10.84375 L 0.203125 -10.84375 L 0.359375 -14.890625 L 13.265625 -14.890625 L 13.40625 -10.84375 L 13.203125 -10.84375 L 13.140625 -11.765625 C 13.066406 -12.816406 12.773438 -13.566406 12.265625 -14.015625 C 11.753906 -14.460938 10.929688 -14.6875 9.796875 -14.6875 L 8.46875 -14.6875 L 8.46875 -1.5625 C 8.46875 -0.96875 8.566406 -0.59375 8.765625 -0.4375 C 8.972656 -0.28125 9.226562 -0.203125 9.53125 -0.203125 L 10.40625 -0.203125 L 10.40625 0 Z M 3.21875 0 "/></g></g></g><g fill="#fbfdfa" fill-opacity="1"><g transform="translate(131.452143, 203.510437)"><g><path d="M 0.578125 0 L 0.578125 -0.203125 L 1.453125 -0.203125 C 1.765625 -0.203125 2.019531 -0.28125 2.21875 -0.4375 C 2.425781 -0.59375 2.53125 -0.96875 2.53125 -1.5625 L 2.53125 -13.328125 C 2.53125 -13.921875 2.425781 -14.296875 2.21875 -14.453125 C 2.019531 -14.609375 1.765625 -14.6875 1.453125 -14.6875 L 0.578125 -14.6875 L 0.578125 -14.890625 L 7.78125 -14.890625 L 7.78125 -14.6875 L 6.90625 -14.6875 C 6.601562 -14.6875 6.347656 -14.609375 6.140625 -14.453125 C 5.941406 -14.296875 5.84375 -13.921875 5.84375 -13.328125 L 5.84375 -7.890625 L 11.25 -7.890625 L 11.25 -13.328125 C 11.25 -13.921875 11.144531 -14.296875 10.9375 -14.453125 C 10.738281 -14.609375 10.484375 -14.6875 10.171875 -14.6875 L 9.296875 -14.6875 L 9.296875 -14.890625 L 16.5 -14.890625 L 16.5 -14.6875 L 15.625 -14.6875 C 15.320312 -14.6875 15.066406 -14.609375 14.859375 -14.453125 C 14.660156 -14.296875 14.5625 -13.921875 14.5625 -13.328125 L 14.5625 -1.5625 C 14.5625 -0.96875 14.660156 -0.59375 14.859375 -0.4375 C 15.066406 -0.28125 15.320312 -0.203125 15.625 -0.203125 L 16.5 -0.203125 L 16.5 0 L 9.296875 0 L 9.296875 -0.203125 L 10.171875 -0.203125 C 10.484375 -0.203125 10.738281 -0.28125 10.9375 -0.4375 C 11.144531 -0.59375 11.25 -0.96875 11.25 -1.5625 L 11.25 -7.671875 L 5.84375 -7.671875 L 5.84375 -1.5625 C 5.84375 -0.96875 5.941406 -0.59375 6.140625 -0.4375 C 6.347656 -0.28125 6.601562 -0.203125 6.90625 -0.203125 L 7.78125 -0.203125 L 7.78125 0 Z M 0.578125 0 "/></g></g></g><g fill="#fbfdfa" fill-opacity="1"><g transform="translate(156.362474, 203.510437)"><g><path d="M 8.21875 0.203125 C 6.632812 0.203125 5.320312 -0.113281 4.28125 -0.75 C 3.238281 -1.382812 2.453125 -2.28125 1.921875 -3.4375 C 1.398438 -4.59375 1.140625 -5.941406 1.140625 -7.484375 C 1.140625 -9.023438 1.398438 -10.363281 1.921875 -11.5 C 2.453125 -12.644531 3.238281 -13.535156 4.28125 -14.171875 C 5.320312 -14.804688 6.640625 -15.125 8.234375 -15.125 C 9.742188 -15.125 11.019531 -14.804688 12.0625 -14.171875 C 13.113281 -13.535156 13.910156 -12.644531 14.453125 -11.5 C 14.992188 -10.351562 15.265625 -9.007812 15.265625 -7.46875 C 15.265625 -5.925781 14.988281 -4.578125 14.4375 -3.421875 C 13.894531 -2.273438 13.097656 -1.382812 12.046875 -0.75 C 10.992188 -0.113281 9.71875 0.203125 8.21875 0.203125 Z M 8.21875 0 C 9.457031 0 10.359375 -0.585938 10.921875 -1.765625 C 11.484375 -2.953125 11.765625 -4.851562 11.765625 -7.46875 C 11.765625 -10.082031 11.484375 -11.976562 10.921875 -13.15625 C 10.367188 -14.332031 9.472656 -14.921875 8.234375 -14.921875 C 6.984375 -14.921875 6.070312 -14.332031 5.5 -13.15625 C 4.9375 -11.976562 4.65625 -10.082031 4.65625 -7.46875 C 4.65625 -4.851562 4.9375 -2.953125 5.5 -1.765625 C 6.0625 -0.585938 6.96875 0 8.21875 0 Z M 8.21875 0 "/></g></g></g><g fill="#fbfdfa" fill-opacity="1"><g transform="translate(180.605304, 203.510437)"><g><path d="M 0.578125 0 L 0.578125 -0.203125 L 1.875 -0.203125 C 2.164062 -0.203125 2.414062 -0.28125 2.625 -0.4375 C 2.832031 -0.59375 2.9375 -0.96875 2.9375 -1.5625 L 2.9375 -13.40625 C 2.9375 -13.96875 2.828125 -14.320312 2.609375 -14.46875 C 2.398438 -14.613281 2.15625 -14.6875 1.875 -14.6875 L 0.578125 -14.6875 L 0.578125 -14.890625 L 5.875 -14.890625 L 13.265625 -3.65625 L 13.265625 -13.40625 C 13.265625 -13.96875 13.15625 -14.320312 12.9375 -14.46875 C 12.726562 -14.613281 12.484375 -14.6875 12.203125 -14.6875 L 10.640625 -14.6875 L 10.640625 -14.890625 L 16.078125 -14.890625 L 16.078125 -14.6875 L 14.53125 -14.6875 C 14.238281 -14.6875 13.988281 -14.609375 13.78125 -14.453125 C 13.570312 -14.296875 13.46875 -13.921875 13.46875 -13.328125 L 13.46875 0 L 12.21875 0 L 3.15625 -13.8125 L 3.15625 -1.5625 C 3.15625 -0.96875 3.257812 -0.59375 3.46875 -0.4375 C 3.675781 -0.28125 3.925781 -0.203125 4.21875 -0.203125 L 6.03125 -0.203125 L 6.03125 0 Z M 0.578125 0 "/></g></g></g><g fill="#fbfdfa" fill-opacity="1"><g transform="translate(204.868986, 203.510437)"><g><path d="M 3.421875 0 L 3.421875 -0.203125 L 4.40625 -0.203125 C 4.738281 -0.203125 5.019531 -0.265625 5.25 -0.390625 C 5.488281 -0.515625 5.609375 -0.878906 5.609375 -1.484375 L 5.609375 -5.734375 L 1.484375 -13.578125 C 1.253906 -13.992188 1.050781 -14.28125 0.875 -14.4375 C 0.707031 -14.601562 0.5 -14.6875 0.25 -14.6875 L 0 -14.6875 L 0 -14.890625 L 6.984375 -14.890625 L 6.984375 -14.6875 L 6.359375 -14.6875 C 5.890625 -14.6875 5.539062 -14.628906 5.3125 -14.515625 C 5.09375 -14.398438 4.984375 -14.210938 4.984375 -13.953125 C 4.984375 -13.628906 5.128906 -13.175781 5.421875 -12.59375 L 7.546875 -8.421875 C 7.785156 -7.960938 8 -7.550781 8.1875 -7.1875 C 8.382812 -6.820312 8.585938 -6.414062 8.796875 -5.96875 C 9.023438 -6.5 9.253906 -7.015625 9.484375 -7.515625 C 9.710938 -8.023438 9.9375 -8.515625 10.15625 -8.984375 L 11.71875 -12.390625 C 11.863281 -12.710938 11.976562 -12.988281 12.0625 -13.21875 C 12.144531 -13.457031 12.1875 -13.664062 12.1875 -13.84375 C 12.1875 -14.15625 12.0625 -14.375 11.8125 -14.5 C 11.570312 -14.625 11.195312 -14.6875 10.6875 -14.6875 L 9.203125 -14.6875 L 9.203125 -14.890625 L 14.453125 -14.890625 L 14.453125 -14.6875 L 13.84375 -14.6875 C 13.539062 -14.6875 13.273438 -14.566406 13.046875 -14.328125 C 12.816406 -14.085938 12.554688 -13.65625 12.265625 -13.03125 L 8.921875 -5.796875 L 8.921875 -1.5 C 8.921875 -0.882812 9.035156 -0.515625 9.265625 -0.390625 C 9.492188 -0.265625 9.769531 -0.203125 10.09375 -0.203125 L 11.125 -0.203125 L 11.125 0 Z M 3.421875 0 "/></g></g></g><g fill="#fbfdfa" fill-opacity="1"><g transform="translate(227.151031, 203.510437)"><g/></g></g><g fill="#fbfdfa" fill-opacity="1"><g transform="translate(239.670901, 203.510437)"><g><path d="M 0.875 0 L 0.875 -0.203125 L 8.953125 -14.6875 L 4.90625 -14.6875 C 3.75 -14.6875 2.914062 -14.460938 2.40625 -14.015625 C 1.894531 -13.566406 1.613281 -12.816406 1.5625 -11.765625 L 1.5 -10.59375 L 1.265625 -10.59375 L 1.421875 -14.890625 L 12.515625 -14.890625 L 12.515625 -14.6875 L 4.4375 -0.203125 L 9.34375 -0.203125 C 10.46875 -0.203125 11.285156 -0.425781 11.796875 -0.875 C 12.304688 -1.320312 12.601562 -2.070312 12.6875 -3.125 L 12.765625 -4.296875 L 12.96875 -4.296875 L 12.828125 0 Z M 0.875 0 "/></g></g></g><g fill="#fbfdfa" fill-opacity="1"><g transform="translate(261.389761, 203.510437)"><g><path d="M 0.578125 0 L 0.578125 -0.203125 L 1.453125 -0.203125 C 1.765625 -0.203125 2.019531 -0.28125 2.21875 -0.4375 C 2.425781 -0.59375 2.53125 -0.96875 2.53125 -1.5625 L 2.53125 -13.328125 C 2.53125 -13.921875 2.425781 -14.296875 2.21875 -14.453125 C 2.019531 -14.609375 1.765625 -14.6875 1.453125 -14.6875 L 0.578125 -14.6875 L 0.578125 -14.890625 L 7.78125 -14.890625 L 7.78125 -14.6875 L 6.90625 -14.6875 C 6.601562 -14.6875 6.347656 -14.609375 6.140625 -14.453125 C 5.941406 -14.296875 5.84375 -13.921875 5.84375 -13.328125 L 5.84375 -7.890625 L 11.25 -7.890625 L 11.25 -13.328125 C 11.25 -13.921875 11.144531 -14.296875 10.9375 -14.453125 C 10.738281 -14.609375 10.484375 -14.6875 10.171875 -14.6875 L 9.296875 -14.6875 L 9.296875 -14.890625 L 16.5 -14.890625 L 16.5 -14.6875 L 15.625 -14.6875 C 15.320312 -14.6875 15.066406 -14.609375 14.859375 -14.453125 C 14.660156 -14.296875 14.5625 -13.921875 14.5625 -13.328125 L 14.5625 -1.5625 C 14.5625 -0.96875 14.660156 -0.59375 14.859375 -0.4375 C 15.066406 -0.28125 15.320312 -0.203125 15.625 -0.203125 L 16.5 -0.203125 L 16.5 0 L 9.296875 0 L 9.296875 -0.203125 L 10.171875 -0.203125 C 10.484375 -0.203125 10.738281 -0.28125 10.9375 -0.4375 C 11.144531 -0.59375 11.25 -0.96875 11.25 -1.5625 L 11.25 -7.671875 L 5.84375 -7.671875 L 5.84375 -1.5625 C 5.84375 -0.96875 5.941406 -0.59375 6.140625 -0.4375 C 6.347656 -0.28125 6.601562 -0.203125 6.90625 -0.203125 L 7.78125 -0.203125 L 7.78125 0 Z M 0.578125 0 "/></g></g></g><g fill="#fbfdfa" fill-opacity="1"><g transform="translate(286.300091, 203.510437)"><g><path d="M 0.078125 0 L 0.078125 -0.203125 L 0.9375 -0.203125 C 1.320312 -0.203125 1.628906 -0.3125 1.859375 -0.53125 C 2.097656 -0.757812 2.320312 -1.160156 2.53125 -1.734375 L 7.34375 -14.890625 L 9.390625 -14.890625 L 14.0625 -1.703125 C 14.269531 -1.140625 14.488281 -0.75 14.71875 -0.53125 C 14.945312 -0.3125 15.253906 -0.203125 15.640625 -0.203125 L 15.703125 -0.203125 L 15.703125 0 L 8.828125 0 L 8.828125 -0.203125 L 9.953125 -0.203125 C 10.585938 -0.203125 10.90625 -0.425781 10.90625 -0.875 C 10.90625 -1.09375 10.832031 -1.445312 10.6875 -1.9375 L 9.484375 -5.4375 L 4.109375 -5.4375 L 2.921875 -2.21875 C 2.804688 -1.9375 2.722656 -1.6875 2.671875 -1.46875 C 2.617188 -1.25 2.59375 -1.066406 2.59375 -0.921875 C 2.59375 -0.648438 2.675781 -0.460938 2.84375 -0.359375 C 3.007812 -0.253906 3.265625 -0.203125 3.609375 -0.203125 L 5.09375 -0.203125 L 5.09375 0 Z M 4.1875 -5.65625 L 9.421875 -5.65625 L 8.140625 -9.546875 C 8.023438 -9.878906 7.894531 -10.28125 7.75 -10.75 C 7.601562 -11.21875 7.460938 -11.691406 7.328125 -12.171875 C 7.203125 -12.648438 7.097656 -13.0625 7.015625 -13.40625 C 6.898438 -13.070312 6.757812 -12.679688 6.59375 -12.234375 C 6.4375 -11.785156 6.273438 -11.332031 6.109375 -10.875 C 5.941406 -10.425781 5.796875 -10.035156 5.671875 -9.703125 Z M 4.1875 -5.65625 "/></g></g></g><g fill="#fbfdfa" fill-opacity="1"><g transform="translate(309.833697, 203.510437)"><g><path d="M 8.21875 0.203125 C 6.632812 0.203125 5.320312 -0.113281 4.28125 -0.75 C 3.238281 -1.382812 2.453125 -2.28125 1.921875 -3.4375 C 1.398438 -4.59375 1.140625 -5.941406 1.140625 -7.484375 C 1.140625 -9.023438 1.398438 -10.363281 1.921875 -11.5 C 2.453125 -12.644531 3.238281 -13.535156 4.28125 -14.171875 C 5.320312 -14.804688 6.640625 -15.125 8.234375 -15.125 C 9.742188 -15.125 11.019531 -14.804688 12.0625 -14.171875 C 13.113281 -13.535156 13.910156 -12.644531 14.453125 -11.5 C 14.992188 -10.351562 15.265625 -9.007812 15.265625 -7.46875 C 15.265625 -5.925781 14.988281 -4.578125 14.4375 -3.421875 C 13.894531 -2.273438 13.097656 -1.382812 12.046875 -0.75 C 10.992188 -0.113281 9.71875 0.203125 8.21875 0.203125 Z M 8.21875 0 C 9.457031 0 10.359375 -0.585938 10.921875 -1.765625 C 11.484375 -2.953125 11.765625 -4.851562 11.765625 -7.46875 C 11.765625 -10.082031 11.484375 -11.976562 10.921875 -13.15625 C 10.367188 -14.332031 9.472656 -14.921875 8.234375 -14.921875 C 6.984375 -14.921875 6.070312 -14.332031 5.5 -13.15625 C 4.9375 -11.976562 4.65625 -10.082031 4.65625 -7.46875 C 4.65625 -4.851562 4.9375 -2.953125 5.5 -1.765625 C 6.0625 -0.585938 6.96875 0 8.21875 0 Z M 8.21875 0 "/></g></g></g></svg>